<?xml version="1.0" encoding="UTF-8"?>
<svg width="20px" height="19px" viewBox="0 0 20 19" version="1.1" xmlns="http://www.w3.org/2000/svg" xmlns:xlink="http://www.w3.org/1999/xlink">
    <!-- Generator: sketchtool 61.2 (101010) - https://sketch.com -->
    <title>DAAA4100-4C6D-4FAF-8621-D79F2430C4DD</title>
    <desc>Created with sketchtool.</desc>
    <g id="-" stroke="none" stroke-width="1" fill="none" fill-rule="evenodd">
        <g id="01---STYLESHEET" transform="translate(-71.000000, -2646.000000)" fill="#FFFFFF">
            <g id="icons/ic_alert" transform="translate(65.000000, 2640.000000)">
                <g id="Group-2" transform="translate(6.000000, 6.000000)">
                    <path d="M10.0006859,7.10542736e-15 C11.0975816,7.10542736e-15 12.0926989,0.707531191 12.8015921,1.99273599 L12.8015921,1.99273599 L19.4069663,13.9686419 C20.1127484,15.2490875 20.1914156,16.4957656 19.6276343,17.4775162 C19.0645197,18.4592667 17.9614018,19 16.5202818,19 L16.5202818,19 L3.48020119,19 C2.03930339,19 0.935296568,18.4592667 0.372181977,17.4775162 C-0.191154838,16.4946325 -0.112932132,15.2490875 0.592850007,13.9686419 L0.592850007,13.9686419 L7.19889083,1.99273599 C7.9077841,0.707531191 8.90290137,7.10542736e-15 10.0006859,7.10542736e-15 Z M10.0000193,13.3943677 C9.44134914,13.3943677 8.98779078,13.8569145 8.98779078,14.4268828 C8.98779078,14.9982108 9.44134914,15.4609843 10.0000193,15.4609843 C10.5595783,15.4609843 11.0131366,14.9984375 11.0131366,14.4268828 C11.0131366,13.8569145 10.5595783,13.3943677 10.0000193,13.3943677 Z M10.0000193,5.91203273 C9.44134914,5.91203273 8.98779078,6.37457955 8.98779078,6.94454782 C8.98779078,6.97514254 8.99379082,7.0027911 8.99601305,7.03179942 L8.99090191,7.03179942 L9.39490441,12.0341492 L9.39801554,12.0341492 C9.42423792,12.3512011 9.68268396,12.6025311 10.0002415,12.6025311 C10.3186879,12.6025311 10.5769117,12.3516544 10.6031341,12.0341492 L10.6064674,12.0341492 L11.0102477,7.03179942 L11.0049144,7.03179942 C11.007581,7.0027911 11.0131366,6.97514254 11.0131366,6.94454782 C11.0131366,6.37457955 10.5595783,5.91203273 10.0000193,5.91203273 Z" id="Combined-Shape"></path>
                </g>
            </g>
        </g>
    </g>
</svg>