<?xml version="1.0" encoding="UTF-8"?>
<svg width="19px" height="19px" viewBox="0 0 19 19" version="1.1" xmlns="http://www.w3.org/2000/svg" xmlns:xlink="http://www.w3.org/1999/xlink">
    <!-- Generator: sketchtool 61.2 (101010) - https://sketch.com -->
    <title>7251A90B-C6BB-47CE-B72B-B0281BCD3C4F</title>
    <desc>Created with sketchtool.</desc>
    <g id="-" stroke="none" stroke-width="1" fill="none" fill-rule="evenodd">
        <g id="01---STYLESHEET" transform="translate(-121.000000, -2648.000000)" fill="#FFFFFF">
            <g id="icons/ic_bell" transform="translate(114.000000, 2641.000000)">
                <path d="M18.4698795,24.0833333 C17.9638554,24.9166667 17.1204819,25.3333333 16.2771084,25.3333333 C15.8554217,25.3333333 15.4337349,25.25 15.0120482,25 C14.5903614,24.75 14.3373494,24.5 14.0843373,24.0833333 C13.8313253,23.6666667 14,23.1666667 14.4216867,22.9166667 C14.8433735,22.6666667 15.3493976,22.8333333 15.6024096,23.25 C15.686747,23.3333333 15.7710843,23.5 15.939759,23.5833333 C16.3614458,23.8333333 16.8674699,23.6666667 17.1204819,23.25 C17.373494,22.8333333 17.8795181,22.75 18.3012048,22.9166667 C18.7228916,23.0833333 18.7228916,23.6666667 18.4698795,24.0833333 Z M25.5542169,20.3333333 C25.5542169,20.8333333 25.2168675,21.1666667 24.7108434,21.1666667 L7.84337349,21.1666667 C7.3373494,21.1666667 7,20.8333333 7,20.3333333 C7,19.8333333 7.3373494,19.5 7.84337349,19.5 C8.77108434,19.5 9.53012048,18.75 9.53012048,17.8333333 L9.53012048,13.6666667 C9.53012048,10 12.5662651,7 16.2771084,7 C19.9879518,7 23.0240964,10 23.0240964,13.6666667 L23.0240964,17.8333333 C23.0240964,18.75 23.7831325,19.5 24.7108434,19.5 C25.2168675,19.5 25.5542169,19.8333333 25.5542169,20.3333333 Z M21.7590361,19.5 C21.5060241,19 21.3373494,18.4166667 21.3373494,17.8333333 L21.3373494,13.6666667 C21.3373494,10.9166667 19.060241,8.66666667 16.2771084,8.66666667 C13.4939759,8.66666667 11.2168675,10.9166667 11.2168675,13.6666667 L11.2168675,17.8333333 C11.2168675,18.4166667 11.0481928,19 10.7951807,19.5 L21.7590361,19.5 Z" id="Mask"></path>
            </g>
        </g>
    </g>
</svg>