<?xml version="1.0" encoding="UTF-8"?>
<svg width="32px" height="32px" viewBox="0 0 32 32" version="1.1" xmlns="http://www.w3.org/2000/svg" xmlns:xlink="http://www.w3.org/1999/xlink">
    <!-- Generator: sketchtool 62 (101010) - https://sketch.com -->
    <title>E8916CE3-747F-4C90-B49C-8626128AFEAF</title>
    <desc>Created with sketchtool.</desc>
    <g id="Asset-Artboard-Page" stroke="none" stroke-width="1" fill="none" fill-rule="evenodd">
        <g id="icons/ic_print-copy-icons/ic_back" fill="#FFFFFF">
            <path d="M13.8278301,8.11611652 C14.3159854,7.62796116 15.1074416,7.62796116 15.595597,8.11611652 C16.035191,8.55571052 16.0833916,9.24927027 15.6931391,9.77294534 L15.6931391,9.77294534 L15.5956164,9.88386412 L10.729,14.75 L25.7858928,14.75 C26.4331015,14.75 26.9654267,15.2418747 27.0294392,15.8721948 L27.0294392,15.8721948 L27.0358928,16 C27.0358928,16.6273109 26.5714147,17.1549746 25.921225,17.2420257 L25.921225,17.2420257 L25.7858928,17.25 L10.73,17.25 L15.595597,22.1161165 C16.0037914,22.5243109 16.0745089,23.151486 15.7700708,23.6582834 L15.7700708,23.6582834 L15.6931391,23.7729453 L15.595597,23.8838835 C15.156003,24.3234775 14.4624433,24.3716781 13.9387682,23.9814256 L13.9387682,23.9814256 L13.8278301,23.8838835 L6.82783006,16.8838835 C6.38823607,16.4442895 6.34003544,15.7507297 6.73028795,15.2270547 L6.73028795,15.2270547 L6.82783006,15.1161165 Z" id="Combined-Shape"></path>
        </g>
    </g>
</svg>