<?xml version="1.0" encoding="UTF-8"?>
<svg width="32px" height="32px" viewBox="0 0 32 32" version="1.1" xmlns="http://www.w3.org/2000/svg" xmlns:xlink="http://www.w3.org/1999/xlink">
    <!-- Generator: sketchtool 62 (101010) - https://sketch.com -->
    <title>395B9F7E-013C-4928-BAA2-01D4AAE79A5E</title>
    <desc>Created with sketchtool.</desc>
    <g id="Asset-Artboard-Page" stroke="none" stroke-width="1" fill="none" fill-rule="evenodd">
        <g id="icons/ic_cross" fill="#FFFFFF">
            <path d="M23.7781746,8.72182541 C24.329503,9.27315382 24.3619341,10.1468837 23.8754678,10.7361417 L23.7781746,10.8431458 L18.1204856,16.4994856 L23.7781746,22.1568542 C24.363961,22.7426407 24.363961,23.6923882 23.7781746,24.2781746 C23.2268462,24.829503 22.3531163,24.8619341 21.7638583,24.3754678 L21.6568542,24.2781746 L15.9994856,18.6204856 L10.3431458,24.2781746 C9.75735931,24.863961 8.80761184,24.863961 8.22182541,24.2781746 C7.670497,23.7268462 7.63806591,22.8531163 8.12453216,22.2638583 L8.22182541,22.1568542 L13.8784856,16.4994856 L8.22182541,10.8431458 C7.63603897,10.2573593 7.63603897,9.30761184 8.22182541,8.72182541 C8.77315382,8.170497 9.6468837,8.13806591 10.2361417,8.62453216 L10.3431458,8.72182541 L15.9994856,14.3784856 L21.6568542,8.72182541 C22.2426407,8.13603897 23.1923882,8.13603897 23.7781746,8.72182541 Z" id="Combined-Shape"></path>
        </g>
    </g>
</svg>