<?xml version="1.0" encoding="UTF-8"?>
<svg width="32px" height="32px" viewBox="0 0 32 32" version="1.1" xmlns="http://www.w3.org/2000/svg" xmlns:xlink="http://www.w3.org/1999/xlink">
    <!-- Generator: sketchtool 62 (101010) - https://sketch.com -->
    <title>86E8A878-F678-4703-846B-2A084482B516</title>
    <desc>Created with sketchtool.</desc>
    <g id="Asset-Artboard-Page" stroke="none" stroke-width="1" fill="none" fill-rule="evenodd">
        <g id="icons/ic_link" fill="#FFFFFF">
            <path d="M25.3339205,15.1596351 L22.3104113,18.1698974 C22.108844,18.3705815 21.9072768,18.5712657 21.6049258,18.7719498 C20.4963058,19.5746864 19.2869021,19.9760547 17.9767148,19.9760547 C16.1626093,19.9760547 14.3485038,19.1733181 13.1391002,17.5678449 C12.8367493,17.1664766 12.9375329,16.4640821 13.3406675,16.1630559 C13.743802,15.8620296 14.4492875,15.9623717 14.7516384,16.36374 C16.0618257,18.1698974 18.5814167,18.4709236 20.3955222,17.1664766 C20.5970894,17.0661345 20.6978731,16.9657925 20.7986567,16.7651083 L23.8221659,13.7548461 C25.3339205,12.1493729 25.3339205,9.64082098 23.7213823,8.13568985 C22.108844,6.63055872 19.6900367,6.63055872 18.0774985,8.13568985 L16.3641766,9.84150513 C15.9610421,10.2428734 15.3563402,10.2428734 14.9532057,9.84150513 C14.5500711,9.44013683 14.5500711,8.83808438 14.9532057,8.43671608 L16.6665275,6.7309008 C18.9845512,4.42303307 22.7135459,4.42303307 25.0315696,6.7309008 C27.5511605,8.93842645 27.6519442,12.8517674 25.3339205,15.1596351 Z M15.4571239,22.0832383 L13.743802,23.7890536 C12.1312638,25.2941847 9.71245646,25.2941847 8.09991824,23.7890536 C6.48738002,22.2839225 6.48738002,19.6750285 7.9991346,18.1698974 L11.0226438,15.1596351 C11.1234274,15.059293 11.3249947,14.8586089 11.4257783,14.7582668 C12.3328311,14.1562144 13.3406675,13.8551881 14.4492875,13.9555302 C15.5579075,14.1562144 16.4649603,14.6579247 17.0696621,15.5610034 C17.372013,15.9623717 18.0774985,16.0627138 18.480633,15.7616876 C18.8837676,15.4606613 18.9845512,14.7582668 18.6822003,14.3568985 C17.6743639,13.0524515 16.263393,12.2497149 14.7516384,12.0490308 C13.2398838,11.7480046 11.6273456,12.1493729 10.3171583,13.1527936 C10.115591,13.3534778 9.91402374,13.5541619 9.71245646,13.7548461 L6.6889473,16.7651083 C4.3709236,19.1733181 4.47170724,22.986317 6.78973094,25.2941847 C7.9991346,26.3979475 9.51088918,27 11.0226438,27 C12.5343983,27 14.0461529,26.3979475 15.2555566,25.2941847 L16.9688785,23.5883694 C17.372013,23.1870011 17.372013,22.5849487 16.9688785,22.1835804 C16.5657439,21.7822121 15.8602584,21.68187 15.4571239,22.0832383 Z" id="Mask" transform="translate(16.000000, 16.000000) rotate(45.000000) translate(-16.000000, -16.000000) "></path>
        </g>
    </g>
</svg>