<?xml version="1.0" encoding="UTF-8"?>
<svg width="135px" height="40px" viewBox="0 0 135 40" version="1.1" xmlns="http://www.w3.org/2000/svg" xmlns:xlink="http://www.w3.org/1999/xlink">
    <!-- Generator: sketchtool 62 (101010) - https://sketch.com -->
    <title>291B0EDF-A19A-4242-A27A-E81A6F112711</title>
    <desc>Created with sketchtool.</desc>
    <g id="UI" stroke="none" stroke-width="1" fill="none" fill-rule="evenodd">
        <g id="Cheff-Screen/Cheff_Screen_SideMenu" transform="translate(-103.000000, -28.000000)">
            <g id="Mimic_Color_RGB" transform="translate(103.000000, 28.000000)">
                <path d="M35.7236117,11.6453592 L35.7236117,28.3375922 C35.7236117,28.3921553 35.7236117,28.4467184 35.716233,28.5012816 C35.6618641,29.5731262 35.0659417,30.5504078 34.1175922,31.0882718 L19.5181748,39.4344854 C18.5226408,40.0012816 17.3016699,40.0012816 16.3061359,39.4344854 L3.35623301,32.032932 L1.70671845,31.0882718 C0.758368932,30.5504078 0.162446602,29.5731262 0.107883495,28.5012816 C0.100699029,28.4467184 0.100699029,28.3921553 0.100699029,28.3375922 L0.100699029,11.6453592 C0.100699029,10.5080777 0.711184466,9.45798058 1.70671845,8.89118447 L16.3061359,0.544970874 C17.3016699,-0.0218252427 18.5226408,-0.0218252427 19.5181748,0.544970874 L34.1175922,8.89118447 C35.1131262,9.45798058 35.7236117,10.5080777 35.7236117,11.6453592" id="Fill-1" fill="#121212"></path>
                <path d="M11.9701165,20.8135728 C11.9701165,22.1533786 7.90254369,24.1953204 5.85827184,23.1073592 C5.17361165,22.7423107 4.7163301,22.0256117 4.7163301,20.8135728 C4.7163301,16.5972621 11.5435146,18.8774563 11.9516699,20.6514369 C11.9639029,20.7065825 11.9701165,20.7607573 11.9701165,20.8135728" id="Fill-3" fill="#A7A9AC"></path>
                <path d="M11.9701165,20.8135728 C11.9701165,22.1533786 7.90254369,24.1953204 5.85827184,23.1073592 C5.17361165,22.7423107 4.7163301,22.0256117 4.7163301,20.8135728 C4.7163301,16.5972621 11.5435146,18.8774563 11.9516699,20.6514369 C11.9639029,20.7065825 11.9701165,20.7607573 11.9701165,20.8135728 Z" id="Stroke-5" stroke="#121212" stroke-width="0.833333333"></path>
                <path d="M11.9701165,20.8135728 C11.9701165,22.1533786 7.90254369,24.1953204 5.85827184,23.1073592 C5.7316699,22.7766796 5.66293204,22.3795922 5.66293204,21.9075534 C5.66293204,18.5566796 9.97749515,19.3102718 11.9516699,20.6514369 C11.9639029,20.7065825 11.9701165,20.7607573 11.9701165,20.8135728" id="Fill-7" fill="#C6C6C6"></path>
                <g id="Group-12" transform="translate(16.116505, 29.402524)">
                    <polyline id="Fill-9" fill="#C6C6C6" points="3.59357282 0.0811067961 1.8644466 3.75683495 0.135320388 0.0811067961"></polyline>
                    <polyline id="Stroke-11" stroke="#121212" stroke-width="0.833333333" points="3.59357282 0.0811067961 1.8644466 3.75683495 0.135320388 0.0811067961"></polyline>
                </g>
                <path d="M24.0068544,20.4455146 L24.0068544,26.0928932 C24.0068544,26.4769709 23.7998641,26.8321165 23.4637476,27.0241553 L18.5239417,29.8474563 C18.1880194,30.0394951 17.7738447,30.0394951 17.4379223,29.8474563 L13.0569515,27.3435728 L12.4981165,27.0241553 C12.1621942,26.8321165 11.9550097,26.4769709 11.9550097,26.0928932 L11.9550097,20.4455146 C11.9550097,20.0612427 12.162,19.7062913 12.4981165,19.5142524 L17.4377282,16.6905631 C17.7738447,16.4983301 18.1880194,16.4983301 18.5239417,16.6905631 L23.4637476,19.5142524 C23.7998641,19.7062913 24.0068544,20.0612427 24.0068544,20.4455146" id="Fill-13" fill="#C6C6C6"></path>
                <path d="M24.0068544,20.4455146 L24.0068544,26.0928932 C24.0068544,26.4769709 23.7998641,26.8321165 23.4637476,27.0241553 L18.5239417,29.8474563 C18.1880194,30.0394951 17.7738447,30.0394951 17.4379223,29.8474563 L13.0569515,27.3435728 L12.4981165,27.0241553 C12.1621942,26.8321165 11.9550097,26.4769709 11.9550097,26.0928932 L11.9550097,20.4455146 C11.9550097,20.0612427 12.162,19.7062913 12.4981165,19.5142524 L17.4377282,16.6905631 C17.7738447,16.4983301 18.1880194,16.4983301 18.5239417,16.6905631 L23.4637476,19.5142524 C23.7998641,19.7062913 24.0068544,20.0612427 24.0068544,20.4455146 Z" id="Stroke-15" stroke="#121212" stroke-width="0.833333333"></path>
                <path d="M24.0068544,17.7286796 L24.0068544,23.3758641 C24.0068544,23.7601359 23.7998641,24.1152816 23.4637476,24.3073204 L18.5239417,27.1306214 C18.1880194,27.3226602 17.7738447,27.3226602 17.4379223,27.1306214 L13.0569515,24.6267379 L12.4981165,24.3073204 C12.1621942,24.1152816 11.9550097,23.7601359 11.9550097,23.3758641 L11.9550097,17.7286796 C11.9550097,17.3444078 12.162,16.9894563 12.4981165,16.7972233 L17.4377282,13.9737282 C17.7738447,13.7814951 18.1880194,13.7814951 18.5239417,13.9737282 L23.4637476,16.7972233 C23.7998641,16.9894563 24.0068544,17.3444078 24.0068544,17.7286796" id="Fill-17" fill="#C6C6C6"></path>
                <path d="M24.0068544,17.7286796 L24.0068544,23.3758641 C24.0068544,23.7601359 23.7998641,24.1152816 23.4637476,24.3073204 L18.5239417,27.1306214 C18.1880194,27.3226602 17.7738447,27.3226602 17.4379223,27.1306214 L13.0569515,24.6267379 L12.4981165,24.3073204 C12.1621942,24.1152816 11.9550097,23.7601359 11.9550097,23.3758641 L11.9550097,17.7286796 C11.9550097,17.3444078 12.162,16.9894563 12.4981165,16.7972233 L17.4377282,13.9737282 C17.7738447,13.7814951 18.1880194,13.7814951 18.5239417,13.9737282 L23.4637476,16.7972233 C23.7998641,16.9894563 24.0068544,17.3444078 24.0068544,17.7286796 Z" id="Stroke-19" stroke="#121212" stroke-width="0.833333333"></path>
                <path d="M24.0066602,14.6882524 L24.0066602,20.3354369 C24.0066602,20.3538835 24.0066602,20.3723301 24.0041359,20.3907767 C23.9856893,20.753301 23.7841359,21.0839806 23.4633592,21.2659223 L18.5241359,24.0896117 C18.1874369,24.2812621 17.7744272,24.2812621 17.437534,24.0896117 L13.0565631,21.585534 L12.4983107,21.2659223 C12.1777282,21.0839806 11.9759806,20.753301 11.957534,20.3907767 C11.9552039,20.3723301 11.9552039,20.3538835 11.9552039,20.3354369 L11.9552039,14.6882524 C11.9552039,14.3035922 12.1616117,13.9482524 12.4983107,13.7566019 L17.437534,10.9329126 C17.7744272,10.741068 18.1874369,10.741068 18.5241359,10.9329126 L23.4633592,13.7566019 C23.8000583,13.9482524 24.0066602,14.3035922 24.0066602,14.6882524" id="Fill-21" fill="#407979"></path>
                <path d="M24.0041942,20.390699 C23.9857476,20.7534175 23.7841942,21.0839029 23.4634175,21.2658447 L18.5241942,24.089534 C18.187301,24.2813786 17.7744854,24.2813786 17.4375922,24.089534 L13.0566214,21.5854563 L12.4985631,21.2658447 C12.1775922,21.0839029 11.9760388,20.7534175 11.9575922,20.390699 C11.9760388,20.0279806 12.1775922,19.6974951 12.4985631,19.5141942 L17.4375922,16.690699 C17.7744854,16.4990485 18.187301,16.4990485 18.5241942,16.690699 L23.4634175,19.5141942 C23.7841942,19.6974951 23.9857476,20.0279806 24.0041942,20.390699" id="Fill-23" fill="#77A9AA"></path>
                <g id="Group-28" transform="translate(11.844660, 14.256893)">
                    <path d="M12.0796117,0.199339806 L6.67961165,3.27196117 C6.34271845,3.46380583 5.92970874,3.46380583 5.59300971,3.27196117 L0.157281553,0.119728155" id="Fill-25" fill="#407979"></path>
                    <path d="M12.0796117,0.199339806 L6.67961165,3.27196117 C6.34271845,3.46380583 5.92970874,3.46380583 5.59300971,3.27196117 L0.157281553,0.119728155" id="Stroke-27" stroke="#121212" stroke-width="0.833333333"></path>
                </g>
                <path d="M31.1079806,20.8135728 C31.1079806,24.2432816 27.4840971,23.7034757 25.3844854,22.4607573 C24.5277864,21.9555146 23.9242913,21.3322136 23.9242913,20.8135728 C23.9242913,19.2094951 29.6930291,16.9906602 30.8903107,19.6741553 L30.8916699,19.6741553 C31.0305049,19.9850291 31.1079806,20.3625049 31.1079806,20.8135728" id="Fill-29" fill="#A7A9AC"></path>
                <path d="M31.1079806,20.8135728 C31.1079806,24.2432816 27.4840971,23.7034757 25.3844854,22.4607573 C24.5277864,21.9555146 23.9242913,21.3322136 23.9242913,20.8135728 C23.9242913,19.2094951 29.6930291,16.9906602 30.8903107,19.6741553 L30.8916699,19.6741553 C31.0305049,19.9850291 31.1079806,20.3625049 31.1079806,20.8135728 Z" id="Stroke-31" stroke="#121212" stroke-width="0.833333333"></path>
                <path d="M31.1079806,20.8135728 C31.1079806,24.2432816 27.4840971,23.7034757 25.3844854,22.4607573 C25.2592427,22.2702718 25.1903107,22.0821165 25.1903107,21.9075534 C25.1903107,20.641534 28.7872039,18.9918252 30.8903107,19.6741553 L30.8916699,19.6741553 C31.0305049,19.9850291 31.1079806,20.3625049 31.1079806,20.8135728" id="Fill-33" fill="#C6C6C6"></path>
                <path d="M24.0066602,14.6882524 L24.0066602,20.3354369 C24.0066602,20.718932 23.8000583,21.0742718 23.4633592,21.2659223 L18.5241359,24.0896117 C18.1874369,24.2812621 17.7744272,24.2812621 17.437534,24.0896117 L13.0565631,21.585534 L12.4983107,21.2659223 C12.1616117,21.0742718 11.9552039,20.718932 11.9552039,20.3354369 L11.9552039,14.6882524 C11.9552039,14.3035922 12.1616117,13.9482524 12.4983107,13.7566019 L17.437534,10.9329126 C17.7744272,10.741068 18.1874369,10.741068 18.5241359,10.9329126 L23.4633592,13.7566019 C23.8000583,13.9482524 24.0066602,14.3035922 24.0066602,14.6882524 Z" id="Stroke-35" stroke="#121212" stroke-width="0.833333333"></path>
                <path d="M19.5714563,14.1285631 C19.5714563,12.4015728 20.9714563,11.0015728 22.6984466,11.0015728" id="Stroke-37" stroke="#121212" stroke-width="1.16504854"></path>
                <path d="M16.1846796,14.1285631 C16.1846796,12.4015728 14.7846796,11.0015728 13.0576893,11.0015728" id="Stroke-39" stroke="#121212" stroke-width="1.16504854"></path>
                <path d="M11.9701165,20.8135728 C11.9701165,22.1533786 7.90254369,24.1953204 5.85827184,23.1073592 C5.17361165,22.7423107 4.7163301,22.0256117 4.7163301,20.8135728 C4.7163301,16.5972621 11.5435146,18.8774563 11.9516699,20.6514369 C11.9639029,20.7065825 11.9701165,20.7607573 11.9701165,20.8135728 Z" id="Stroke-41" stroke="#121212" stroke-width="0.833333333"></path>
                <path d="M31.1079806,20.8135728 C31.1079806,24.2432816 27.4840971,23.7034757 25.3844854,22.4607573 C24.5277864,21.9555146 23.9242913,21.3322136 23.9242913,20.8135728 C23.9242913,19.2094951 29.6930291,16.9906602 30.8903107,19.6741553 L30.8916699,19.6741553 C31.0305049,19.9850291 31.1079806,20.3625049 31.1079806,20.8135728 Z" id="Stroke-43" stroke="#121212" stroke-width="0.833333333"></path>
                <path d="M19.5714563,14.1285631 C19.5714563,12.4015728 20.9714563,11.0015728 22.6984466,11.0015728" id="Stroke-45" stroke="#407979" stroke-width="0.833333333" stroke-linecap="round" stroke-linejoin="round"></path>
                <path d="M16.1846796,14.1285631 C16.1846796,12.4015728 14.7846796,11.0015728 13.0576893,11.0015728" id="Stroke-47" stroke="#407979" stroke-width="0.833333333" stroke-linecap="round" stroke-linejoin="round"></path>
                <polygon id="Fill-49" fill="#407979" points="13.6023883 9.39897087 12.325301 9.39897087 11.6868544 10.5047961 12.325301 11.6108155 13.6023883 11.6108155 14.240835 10.5047961"></polygon>
                <polygon id="Stroke-51" stroke="#121212" stroke-width="0.833333333" points="13.6023883 9.39897087 12.325301 9.39897087 11.6868544 10.5047961 12.325301 11.6108155 13.6023883 11.6108155 14.240835 10.5047961"></polygon>
                <polygon id="Fill-53" fill="#407979" points="23.5354563 9.39897087 22.2583689 9.39897087 21.6199223 10.5047961 22.2583689 11.6108155 23.5354563 11.6108155 24.1740971 10.5047961"></polygon>
                <polygon id="Stroke-55" stroke="#121212" stroke-width="0.833333333" points="23.5354563 9.39897087 22.2583689 9.39897087 21.6199223 10.5047961 22.2583689 11.6108155 23.5354563 11.6108155 24.1740971 10.5047961"></polygon>
                <path d="M66.7053981,8.79473786 L67.8877282,8.79473786 C68.1118058,8.79473786 68.2933592,8.97629126 68.2933592,9.20036893 L68.2933592,30.1376505 C68.2933592,30.361534 68.1118058,30.5430874 67.8877282,30.5430874 L63.1323883,30.5430874 C62.9085049,30.5430874 62.7267573,30.361534 62.7267573,30.1376505 L62.7267573,22.6757087 C62.7267573,22.2990097 62.2582136,22.1258058 62.013165,22.4120194 L58.4143301,26.6147379 C58.3372427,26.704835 58.2248155,26.7566796 58.1061748,26.7566796 L56.699767,26.7566796 C56.5811262,26.7566796 56.4685049,26.704835 56.3916117,26.6147379 L52.8253981,22.4454175 C52.5805437,22.1590097 52.1116117,22.3322136 52.1116117,22.7091068 L52.1116117,30.1376505 C52.1116117,30.361534 51.9298641,30.5430874 51.7057864,30.5430874 L46.9504466,30.5430874 C46.7265631,30.5430874 46.5448155,30.361534 46.5448155,30.1376505 L46.5448155,9.20036893 C46.5448155,8.97629126 46.7265631,8.79473786 46.9504466,8.79473786 L48.1327767,8.79473786 C48.2543301,8.79473786 48.3694757,8.84930097 48.4465631,8.94328155 L57.1053981,19.5126019 C57.2677282,19.7106602 57.5706408,19.7106602 57.7329709,19.5126019 L66.3916117,8.94328155 C66.468699,8.84930097 66.5838447,8.79473786 66.7053981,8.79473786" id="Fill-57" fill="#121212"></path>
                <path d="M78.2613592,8.63250485 C78.2613592,9.53852427 77.9260194,10.3121165 77.2580583,10.9476505 C77.2093204,10.9936699 77.1578641,11.0394951 77.1064078,11.0857087 C76.7631068,11.3777476 76.3815534,11.5913398 75.9650485,11.7266796 C75.6135922,11.8429903 75.2349515,11.9024078 74.8318447,11.9024078 C73.8798058,11.9024078 73.0765049,11.5888155 72.4194175,10.9639612 C71.7621359,10.3363883 71.432233,9.56027184 71.432233,8.63250485 C71.432233,7.70493204 71.7621359,6.92318447 72.4194175,6.28745631 C73.0765049,5.64920388 73.8798058,5.3328932 74.8318447,5.3328932 C75.2376699,5.3328932 75.6190291,5.38959223 75.9704854,5.50590291 C76.3869903,5.64376699 76.7685437,5.86027184 77.1120388,6.15502913 C77.1145631,6.15774757 77.1145631,6.15502913 77.1145631,6.15502913 C77.163301,6.1983301 77.2120388,6.24163107 77.2580583,6.28745631 C77.9260194,6.92318447 78.2613592,7.70493204 78.2613592,8.63250485" id="Fill-59" fill="#A8D4D5"></path>
                <path d="M78.2613592,8.63250485 C78.2613592,9.53852427 77.9260194,10.3121165 77.2580583,10.9476505 C76.8737864,11.3128932 76.4438835,11.5725049 75.9650485,11.7266796 C75.4945631,11.5752233 75.0699029,11.3208544 74.6939806,10.9639612 C74.036699,10.3363883 73.7066019,9.56027184 73.7066019,8.63250485 C73.7066019,7.70493204 74.036699,6.92318447 74.6939806,6.28745631 C75.0726214,5.92240777 75.4972816,5.66279612 75.9704854,5.50590291 C76.4466019,5.66279612 76.876699,5.92240777 77.2580583,6.28745631 C77.9260194,6.92318447 78.2613592,7.70493204 78.2613592,8.63250485" id="Fill-61" fill="#77A9AA"></path>
                <path d="M78.2613592,8.63250485 C78.2613592,9.53852427 77.9260194,10.3121165 77.2580583,10.9476505 C77.2093204,10.9936699 77.1578641,11.0394951 77.1064078,11.0857087 C77.0605825,11.0476505 77.0145631,11.0072621 76.9712621,10.9639612 C76.3139806,10.3363883 75.9840777,9.56027184 75.9840777,8.63250485 C75.9840777,7.70493204 76.3139806,6.92318447 76.9712621,6.28745631 C77.0172816,6.24163107 77.0660194,6.1983301 77.1120388,6.15502913 C77.1145631,6.15774757 77.1145631,6.15502913 77.1145631,6.15502913 C77.163301,6.1983301 77.2120388,6.24163107 77.2580583,6.28745631 C77.9260194,6.92318447 78.2613592,7.70493204 78.2613592,8.63250485" id="Fill-63" fill="#407979"></path>
                <path d="M72.0797087,30.1375534 L72.0797087,14.7668738 C72.0797087,14.5427961 72.2614563,14.3612427 72.4853398,14.3612427 L77.2406796,14.3612427 C77.4647573,14.3612427 77.6463107,14.5427961 77.6463107,14.7668738 L77.6463107,30.1375534 C77.6463107,30.3616311 77.4647573,30.5431845 77.2406796,30.5431845 L72.4853398,30.5431845 C72.2614563,30.5431845 72.0797087,30.3616311 72.0797087,30.1375534" id="Fill-65" fill="#121212"></path>
                <path d="M107.032408,20.5751068 L107.032408,30.1376311 C107.032408,30.3615146 106.85066,30.543068 106.626777,30.543068 L101.871631,30.543068 C101.647553,30.543068 101.466,30.3615146 101.466,30.1376311 L101.466,21.384233 C101.466,20.6292816 101.260563,20.0411262 100.851049,19.6203495 C100.440951,19.199767 99.8801748,18.9892816 99.1679417,18.9892816 C98.4990097,18.9892816 97.9592039,19.199767 97.5498835,19.6203495 C97.1397864,20.0411262 96.9351262,20.6292816 96.9351262,21.384233 L96.9351262,30.1376311 C96.9351262,30.3615146 96.7533786,30.543068 96.5294951,30.543068 L91.7739612,30.543068 C91.5500777,30.543068 91.3683301,30.3615146 91.3683301,30.1376311 L91.3683301,21.384233 C91.3683301,20.6292816 91.1630874,20.0411262 90.7533786,19.6203495 C90.3434757,19.199767 89.7825049,18.9892816 89.0706602,18.9892816 C88.4017282,18.9892816 87.8619223,19.199767 87.4524078,19.6203495 C87.0421165,20.0411262 86.8374563,20.6292816 86.8374563,21.384233 L86.8374563,30.1376311 C86.8374563,30.3615146 86.6559029,30.543068 86.4318252,30.543068 L81.6764854,30.543068 C81.4526019,30.543068 81.2710485,30.3615146 81.2710485,30.1376311 L81.2710485,14.7669515 C81.2710485,14.5428738 81.4526019,14.3613204 81.6764854,14.3613204 L85.9463883,14.3613204 C86.170466,14.3613204 86.3520194,14.5428738 86.3520194,14.7669515 C86.3520194,15.0993786 86.7263883,15.2853981 86.9972621,15.0927767 C88.0477476,14.3461748 89.3102718,13.9729709 90.786,13.9729709 C92.6386214,13.9729709 94.1139612,14.5617087 95.2126019,15.7387961 C95.361534,15.8982136 95.6106602,15.9110291 95.7731845,15.7655922 C97.1077476,14.570835 98.7788155,13.9729709 100.786388,13.9729709 C102.706388,13.9729709 104.227553,14.5716117 105.349689,15.7690874 C106.471049,16.9665631 107.032408,18.568699 107.032408,20.5751068" id="Fill-67" fill="#121212"></path>
                <path d="M110.527553,30.1375534 L110.527553,14.7668738 C110.527553,14.5427961 110.709301,14.3612427 110.933379,14.3612427 L115.688524,14.3612427 C115.912408,14.3612427 116.094155,14.5427961 116.094155,14.7668738 L116.094155,30.1375534 C116.094155,30.3616311 115.912408,30.5431845 115.688524,30.5431845 L110.933379,30.5431845 C110.709301,30.5431845 110.527553,30.3616311 110.527553,30.1375534" id="Fill-69" fill="#121212"></path>
                <path d="M118.909495,22.4521942 C118.866,20.1220971 119.72367,18.1154951 121.482699,16.4325825 C123.240951,14.7496699 125.32833,13.9298641 127.744835,13.9729709 C129.384252,13.9729709 130.835709,14.3562718 132.097845,15.1219029 C133.260563,15.8277282 134.171631,16.7850097 134.830854,17.9943301 C134.927748,18.1721942 134.884447,18.3937476 134.72367,18.5166602 L131.485612,20.9929709 C131.303087,21.1323883 131.041922,21.0910291 130.908913,20.9038447 C130.047359,19.6925825 129.014155,19.0865631 127.809495,19.0865631 C126.838621,19.0865631 126.062117,19.3993786 125.479398,20.0250097 C124.897068,20.6510291 124.605612,21.4601553 124.605612,22.4521942 C124.605612,23.4448155 124.897068,24.2539417 125.479398,24.8795728 C126.062117,25.5055922 126.838621,25.8180194 127.809495,25.8180194 C128.996874,25.8180194 130.029689,25.2191845 130.908524,24.0217087 C131.042311,23.8393786 131.299204,23.8001553 131.479592,23.9366602 L134.721146,26.3883107 C134.883282,26.510835 134.927359,26.7333592 134.830078,26.9118058 C134.170854,28.1203495 133.259981,29.0776311 132.097845,29.7826796 C130.835709,30.5483107 129.384252,30.9314175 127.744835,30.9314175 C125.32833,30.9745243 123.240951,30.1549126 121.482699,28.4718058 C119.72367,26.7888932 118.866,24.7822913 118.909495,22.4521942" id="Fill-71" fill="#121212"></path>
                <path d="M116.709282,8.63250485 C116.709282,9.53852427 116.373748,10.3121165 115.705786,10.9476505 C115.657243,10.9936699 115.605786,11.0394951 115.554524,11.0857087 C115.210835,11.3777476 114.829476,11.5913398 114.412971,11.7266796 C114.06132,11.8429903 113.68268,11.9024078 113.279767,11.9024078 C112.327728,11.9024078 111.524427,11.5888155 110.867146,10.9639612 C110.209864,10.3363883 109.879961,9.56027184 109.879961,8.63250485 C109.879961,7.70493204 110.209864,6.92318447 110.867146,6.28745631 C111.524427,5.64920388 112.327728,5.3328932 113.279767,5.3328932 C113.685592,5.3328932 114.066951,5.38959223 114.418408,5.50590291 C114.835107,5.64376699 115.216466,5.86027184 115.559767,6.15502913 C115.562485,6.15774757 115.562485,6.15502913 115.562485,6.15502913 C115.611223,6.1983301 115.659961,6.24163107 115.705786,6.28745631 C116.373748,6.92318447 116.709282,7.70493204 116.709282,8.63250485" id="Fill-73" fill="#A8D4D5"></path>
                <path d="M116.709282,8.63250485 C116.709282,9.53852427 116.373748,10.3121165 115.705786,10.9476505 C115.321709,11.3128932 114.891806,11.5725049 114.412971,11.7266796 C113.942485,11.5752233 113.517631,11.3208544 113.141903,10.9639612 C112.484621,10.3363883 112.154718,9.56027184 112.154718,8.63250485 C112.154718,7.70493204 112.484621,6.92318447 113.141903,6.28745631 C113.520544,5.92240777 113.945204,5.66279612 114.418408,5.50590291 C114.89433,5.66279612 115.324427,5.92240777 115.705786,6.28745631 C116.373748,6.92318447 116.709282,7.70493204 116.709282,8.63250485" id="Fill-75" fill="#77A9AA"></path>
                <path d="M116.709282,8.63250485 C116.709282,9.53852427 116.373748,10.3121165 115.705786,10.9476505 C115.657243,10.9936699 115.605786,11.0394951 115.554524,11.0857087 C115.508311,11.0476505 115.462485,11.0072621 115.41899,10.9639612 C114.761903,10.3363883 114.431806,9.56027184 114.431806,8.63250485 C114.431806,7.70493204 114.761903,6.92318447 115.41899,6.28745631 C115.465204,6.24163107 115.513942,6.1983301 115.559767,6.15502913 C115.562485,6.15774757 115.562485,6.15502913 115.562485,6.15502913 C115.611223,6.1983301 115.659961,6.24163107 115.705786,6.28745631 C116.373748,6.92318447 116.709282,7.70493204 116.709282,8.63250485" id="Fill-77" fill="#407979"></path>
            </g>
        </g>
    </g>
</svg>