<?xml version="1.0" encoding="UTF-8"?>
<svg width="163px" height="48px" viewBox="0 0 163 48" version="1.1" xmlns="http://www.w3.org/2000/svg" xmlns:xlink="http://www.w3.org/1999/xlink">
    <!-- Generator: sketchtool 62 (101010) - https://sketch.com -->
    <title>C4CE0185-BC1E-46FE-8867-8488DD7B78F3</title>
    <desc>Created with sketchtool.</desc>
    <g id="Stylesheet" stroke="none" stroke-width="1" fill="none" fill-rule="evenodd">
        <g id="Mimic_Stylesheet" transform="translate(-663.000000, -82.000000)">
            <g id="Mimic_Color_RGB" transform="translate(663.000000, 82.000000)">
                <path d="M43.2,13.9211715 L43.2,34.0830501 C43.2,34.1489547 43.2,34.2148593 43.1910519,34.2807639 C43.1251186,35.5754021 42.402442,36.7558213 41.252376,37.4054857 L23.547624,47.4865423 C22.3403373,48.1711526 20.8596627,48.1711526 19.652376,47.4865423 L3.94799464,38.5465028 L1.94762398,37.4054857 C0.797558024,36.7558213 0.0748814443,35.5754021 0.00871262087,34.2807639 C0,34.2148593 0,34.1489547 0,34.0830501 L0,13.9211715 C0,12.5474947 0.740337298,11.2791246 1.94762398,10.5945143 L19.652376,0.513457719 C20.8596627,-0.171152573 22.3403373,-0.171152573 23.547624,0.513457719 L41.252376,10.5945143 C42.4596627,11.2791246 43.2,12.5474947 43.2,13.9211715" id="Fill-1" fill="#FFFFFF"></path>
                <path d="M14.4,24.8999297 C14.4,26.5552576 9.40129943,29.0780734 6.88906344,27.7338991 C6.04767437,27.2828822 5.48571429,26.3974017 5.48571429,24.8999297 C5.48571429,19.6906846 13.8757425,22.5078608 14.3773307,24.699611 C14.392364,24.7677434 14.4,24.8346762 14.4,24.8999297" id="Fill-3" fill="#A7A9AC"></path>
                <path d="M14.4,24.8999297 C14.4,26.5552576 9.40129943,29.0780734 6.88906344,27.7338991 C6.04767437,27.2828822 5.48571429,26.3974017 5.48571429,24.8999297 C5.48571429,19.6906846 13.8757425,22.5078608 14.3773307,24.699611 C14.392364,24.7677434 14.4,24.8346762 14.4,24.8999297 Z" id="Stroke-5" stroke="#121212" stroke-width="0.792073998"></path>
                <path d="M14.4,24.9125413 C14.4,26.5613746 9.53552825,29.074292 7.09075268,27.7353916 C6.93934751,27.3284404 6.85714286,26.8397645 6.85714286,26.2588495 C6.85714286,22.1350937 12.016994,23.0625027 14.3779394,24.7130086 C14.3925691,24.7808737 14.4,24.8475439 14.4,24.9125413" id="Fill-7" fill="#C6C6C6"></path>
                <g id="Group-12" transform="translate(19.200000, 35.657143)">
                    <polyline id="Fill-9" fill="#C6C6C6" points="4.26058129 0.0961611511 2.21050935 4.45414676 0.16043741 0.0961611511"></polyline>
                    <polyline id="Stroke-11" stroke="#121212" stroke-width="0.792073998" points="4.26058129 0.0961611511 2.21050935 4.45414676 0.16043741 0.0961611511"></polyline>
                </g>
                <path d="M28.8,24.6583445 L28.8,31.5708805 C28.8,32.0410014 28.5526802,32.4757087 28.1510755,32.7107692 L22.2488085,36.1665618 C21.8474358,36.4016223 21.3525642,36.4016223 20.9511915,36.1665618 L15.7166417,33.1017443 L15.0489245,32.7107692 C14.6475518,32.4757087 14.4,32.0410014 14.4,31.5708805 L14.4,24.6583445 C14.4,24.187986 14.6473198,23.7535163 15.0489245,23.5184559 L20.9509594,20.0621879 C21.3525642,19.8268898 21.8474358,19.8268898 22.2488085,20.0621879 L28.1510755,23.5184559 C28.5526802,23.7535163 28.8,24.187986 28.8,24.6583445" id="Fill-13" fill="#C6C6C6"></path>
                <path d="M28.8,24.6583445 L28.8,31.5708805 C28.8,32.0410014 28.5526802,32.4757087 28.1510755,32.7107692 L22.2488085,36.1665618 C21.8474358,36.4016223 21.3525642,36.4016223 20.9511915,36.1665618 L15.7166417,33.1017443 L15.0489245,32.7107692 C14.6475518,32.4757087 14.4,32.0410014 14.4,31.5708805 L14.4,24.6583445 C14.4,24.187986 14.6473198,23.7535163 15.0489245,23.5184559 L20.9509594,20.0621879 C21.3525642,19.8268898 21.8474358,19.8268898 22.2488085,20.0621879 L28.1510755,23.5184559 C28.5526802,23.7535163 28.8,24.187986 28.8,24.6583445 Z" id="Stroke-15" stroke="#121212" stroke-width="0.792073998"></path>
                <path d="M28.8,21.2297731 L28.8,28.1420714 C28.8,28.61243 28.5526802,29.0471373 28.1510755,29.2821977 L22.2488085,32.7379904 C21.8474358,32.9730508 21.3525642,32.9730508 20.9511915,32.7379904 L15.7166417,29.6731729 L15.0489245,29.2821977 C14.6475518,29.0471373 14.4,28.61243 14.4,28.1420714 L14.4,21.2297731 C14.4,20.7594145 14.6473198,20.3249449 15.0489245,20.0896468 L20.9509594,16.6336164 C21.3525642,16.3983183 21.8474358,16.3983183 22.2488085,16.6336164 L28.1510755,20.0896468 C28.5526802,20.3249449 28.8,20.7594145 28.8,21.2297731" id="Fill-17" fill="#C6C6C6"></path>
                <path d="M28.8,21.2297731 L28.8,28.1420714 C28.8,28.61243 28.5526802,29.0471373 28.1510755,29.2821977 L22.2488085,32.7379904 C21.8474358,32.9730508 21.3525642,32.9730508 20.9511915,32.7379904 L15.7166417,29.6731729 L15.0489245,29.2821977 C14.6475518,29.0471373 14.4,28.61243 14.4,28.1420714 L14.4,21.2297731 C14.4,20.7594145 14.6473198,20.3249449 15.0489245,20.0896468 L20.9509594,16.6336164 C21.3525642,16.3983183 21.8474358,16.3983183 22.2488085,16.6336164 L28.1510755,20.0896468 C28.5526802,20.3249449 28.8,20.7594145 28.8,21.2297731 Z" id="Stroke-19" stroke="#121212" stroke-width="0.792073998"></path>
                <path d="M28.8,17.8015962 L28.8,24.7142939 C28.8,24.7368743 28.8,24.7594547 28.7969838,24.7820351 C28.7749424,25.2257997 28.534111,25.6305834 28.1508225,25.8532976 L22.2490615,29.3097653 C21.8467478,29.5443639 21.3532522,29.5443639 20.9507065,29.3097653 L15.7159881,26.2445331 L15.0489455,25.8532976 C14.665889,25.6305834 14.4248256,25.2257997 14.4027842,24.7820351 C14.4,24.7594547 14.4,24.7368743 14.4,24.7142939 L14.4,17.8015962 C14.4,17.3307351 14.6466318,16.895765 15.0489455,16.6611663 L20.9507065,13.2046987 C21.3532522,12.9698623 21.8467478,12.9698623 22.2490615,13.2046987 L28.1508225,16.6611663 C28.5531362,16.895765 28.8,17.3307351 28.8,17.8015962" id="Fill-21" fill="#407979"></path>
                <path d="M28.8,24.3434483 C28.7779497,24.7641071 28.5370213,25.1473841 28.1535783,25.3583891 L22.2494391,28.6331327 C21.8467311,28.8556224 21.3532689,28.8556224 20.9505609,28.6331327 L15.7137331,25.7290553 L15.0466538,25.3583891 C14.6629787,25.1473841 14.4220503,24.7641071 14.4,24.3434483 C14.4220503,23.9227894 14.6629787,23.5395125 15.0466538,23.3269311 L20.9505609,20.0524127 C21.3532689,19.8301481 21.8467311,19.8301481 22.2494391,20.0524127 L28.1535783,23.3269311 C28.5370213,23.5395125 28.7779497,23.9227894 28.8,24.3434483" id="Fill-23" fill="#77A9AA"></path>
                <g id="Group-28" transform="translate(14.400000, 17.142857)">
                    <path d="M14.3217266,0.236339568 L7.91942446,3.87927482 C7.52,4.10672806 7.03033094,4.10672806 6.63113669,3.87927482 L0.18647482,0.141951079" id="Fill-25" fill="#407979"></path>
                    <path d="M14.3217266,0.236339568 L7.91942446,3.87927482 C7.52,4.10672806 7.03033094,4.10672806 6.63113669,3.87927482 L0.18647482,0.141951079" id="Stroke-27" stroke="#121212" stroke-width="0.792073998"></path>
                </g>
                <path d="M37.7142857,24.9002184 C37.7142857,29.1381898 33.2173857,28.4711706 30.6119642,26.9355867 C29.548881,26.311276 28.8,25.5410847 28.8,24.9002184 C28.8,22.9181156 35.9584635,20.1763787 37.4441777,23.49228 L37.4458644,23.49228 C37.6181456,23.8764159 37.7142857,24.3428495 37.7142857,24.9002184" id="Fill-29" fill="#A7A9AC"></path>
                <path d="M37.7142857,24.9002184 C37.7142857,29.1381898 33.2173857,28.4711706 30.6119642,26.9355867 C29.548881,26.311276 28.8,25.5410847 28.8,24.9002184 C28.8,22.9181156 35.9584635,20.1763787 37.4441777,23.49228 L37.4458644,23.49228 C37.6181456,23.8764159 37.7142857,24.3428495 37.7142857,24.9002184 Z" id="Stroke-31" stroke="#121212" stroke-width="0.792073998"></path>
                <path d="M37.0285714,24.9129975 C37.0285714,29.1341188 32.8293702,28.4697516 30.39643,26.9402732 C30.2513041,26.7058329 30.1714286,26.4742603 30.1714286,26.2594164 C30.1714286,24.7012603 34.3393546,22.6708778 36.7763449,23.510657 L36.7779199,23.510657 C36.9387959,23.8932656 37.0285714,24.3578446 37.0285714,24.9129975" id="Fill-33" fill="#C6C6C6"></path>
                <path d="M28.8,17.8015962 L28.8,24.7142939 C28.8,25.1837289 28.5531362,25.618699 28.1508225,25.8532976 L22.2490615,29.3097653 C21.8467478,29.5443639 21.3532522,29.5443639 20.9507065,29.3097653 L15.7159881,26.2445331 L15.0489455,25.8532976 C14.6466318,25.618699 14.4,25.1837289 14.4,24.7142939 L14.4,17.8015962 C14.4,17.3307351 14.6466318,16.895765 15.0489455,16.6611663 L20.9507065,13.2046987 C21.3532522,12.9698623 21.8467478,12.9698623 22.2490615,13.2046987 L28.1508225,16.6611663 C28.5531362,16.895765 28.8,17.3307351 28.8,17.8015962 Z" id="Stroke-35" stroke="#121212" stroke-width="0.792073998"></path>
                <path d="M24,17.1428571 C24,15.2493081 25.5350224,13.7142857 27.4285714,13.7142857" id="Stroke-37" stroke="#121212" stroke-width="1.18396711"></path>
                <path d="M19.2,17.1428571 C19.2,15.2493081 17.6649776,13.7142857 15.7714286,13.7142857" id="Stroke-39" stroke="#121212" stroke-width="1.18396711"></path>
                <path d="M14.4,24.8999297 C14.4,26.5552576 9.40129943,29.0780734 6.88906344,27.7338991 C6.04767437,27.2828822 5.48571429,26.3974017 5.48571429,24.8999297 C5.48571429,19.6906846 13.8757425,22.5078608 14.3773307,24.699611 C14.392364,24.7677434 14.4,24.8346762 14.4,24.8999297 Z" id="Stroke-41" stroke="#121212" stroke-width="0.792073998"></path>
                <path d="M37.7142857,24.9002184 C37.7142857,29.1381898 33.2173857,28.4711706 30.6119642,26.9355867 C29.548881,26.311276 28.8,25.5410847 28.8,24.9002184 C28.8,22.9181156 35.9584635,20.1763787 37.4441777,23.49228 L37.4458644,23.49228 C37.6181456,23.8764159 37.7142857,24.3428495 37.7142857,24.9002184 Z" id="Stroke-43" stroke="#121212" stroke-width="0.792073998"></path>
                <path d="M24,17.1428571 C24,15.2493081 25.5350224,13.7142857 27.4285714,13.7142857" id="Stroke-45" stroke="#407979" stroke-width="0.5" stroke-linecap="round" stroke-linejoin="round"></path>
                <path d="M19.2,17.1428571 C19.2,15.2493081 17.6649776,13.7142857 15.7714286,13.7142857" id="Stroke-47" stroke="#407979" stroke-width="0.5" stroke-linecap="round" stroke-linejoin="round"></path>
                <polygon id="Fill-49" fill="#407979" points="16.457195 10.9714286 15.0856622 10.9714286 14.4 12.3427367 15.0856622 13.7142857 16.457195 13.7142857 17.1428571 12.3427367"></polygon>
                <polygon id="Stroke-51" stroke="#121212" stroke-width="0.591983556" points="16.457195 10.9714286 15.0856622 10.9714286 14.4 12.3427367 15.0856622 13.7142857 16.457195 13.7142857 17.1428571 12.3427367"></polygon>
                <polygon id="Fill-53" fill="#407979" points="28.1141815 10.9714286 26.7427529 10.9714286 26.0571429 12.3427367 26.7427529 13.7142857 28.1141815 13.7142857 28.8 12.3427367"></polygon>
                <polygon id="Stroke-55" stroke="#121212" stroke-width="0.591983556" points="28.1141815 10.9714286 26.7427529 10.9714286 26.0571429 12.3427367 26.7427529 13.7142857 28.1141815 13.7142857 28.8 12.3427367"></polygon>
                <path d="M80.3831625,10.2857143 L81.7997237,10.2857143 C82.0681934,10.2857143 82.2857143,10.5032371 82.2857143,10.7717092 L82.2857143,35.8570949 C82.2857143,36.1253343 82.0681934,36.3428571 81.7997237,36.3428571 L76.1023046,36.3428571 C75.8340676,36.3428571 75.6163141,36.1253343 75.6163141,35.8570949 L75.6163141,26.9167897 C75.6163141,26.4654589 75.0549473,26.2579398 74.7613522,26.6008581 L70.4495529,31.6362212 C70.3571937,31.7441683 70.2224936,31.8062845 70.080349,31.8062845 L68.3953181,31.8062845 C68.2531734,31.8062845 68.1182406,31.7441683 68.0261141,31.6362212 L63.7533988,26.640873 C63.4600364,26.297722 62.8982043,26.5052411 62.8982043,26.9568046 L62.8982043,35.8570949 C62.8982043,36.1253343 62.6804507,36.3428571 62.4119811,36.3428571 L56.714562,36.3428571 C56.446325,36.3428571 56.2285714,36.1253343 56.2285714,35.8570949 L56.2285714,10.7717092 C56.2285714,10.5032371 56.446325,10.2857143 56.714562,10.2857143 L58.1311232,10.2857143 C58.2767575,10.2857143 58.4147146,10.3510875 58.5070738,10.4636875 L68.8813086,23.1270067 C69.0757979,23.3643043 69.4387205,23.3643043 69.6332097,23.1270067 L80.0072119,10.4636875 C80.0995711,10.3510875 80.2375282,10.2857143 80.3831625,10.2857143" id="Fill-57" fill="#FFFFFF"></path>
                <path d="M93.9428571,10.30432 C93.9428571,11.4391444 93.5387985,12.4080986 92.7339567,13.2041295 C92.6752313,13.2617706 92.6132304,13.3191685 92.5512295,13.3770528 C92.1375783,13.7428428 91.6778358,14.0103753 91.1759795,14.1798937 C90.7525017,14.3255773 90.2962687,14.4 89.8105561,14.4 C88.6634226,14.4 87.6955067,14.0072136 86.903767,13.2245593 C86.1117933,12.4385 85.7142857,11.466384 85.7142857,10.30432 C85.7142857,9.14249908 86.1117933,8.16332997 86.903767,7.36705583 C87.6955067,6.56761995 88.6634226,6.17142857 89.8105561,6.17142857 C90.2995443,6.17142857 90.7590528,6.2424463 91.1825306,6.38812993 C91.6843869,6.56081003 92.1441293,6.83199074 92.5580145,7.20118566 C92.5610561,7.20459062 92.5610561,7.20118566 92.5610561,7.20118566 C92.6197815,7.2554218 92.6785068,7.30965794 92.7339567,7.36705583 C93.5387985,8.16332997 93.9428571,9.14249908 93.9428571,10.30432" id="Fill-59" fill="#A8D4D5"></path>
                <path d="M93.9428571,10.6482308 C93.9428571,11.7468035 93.5389765,12.6848046 92.7344892,13.4554065 C92.2716752,13.898273 91.7539035,14.213059 91.1771984,14.4 C90.6105494,14.2163552 90.099092,13.9079261 89.646334,13.4751836 C88.8547092,12.7142349 88.4571429,11.773173 88.4571429,10.6482308 C88.4571429,9.52352414 88.8547092,8.57563442 89.646334,7.80479713 C90.102366,7.36216607 90.6138235,7.04738004 91.1837466,6.85714286 C91.7571776,7.04738004 92.2751832,7.36216607 92.7344892,7.80479713 C93.5389765,8.57563442 93.9428571,9.52352414 93.9428571,10.6482308" id="Fill-61" fill="#77A9AA"></path>
                <path d="M93.9428571,10.6437612 C93.9428571,11.77777 93.5389593,12.7460279 92.7344377,13.5414867 C92.6757357,13.5990864 92.6137595,13.656443 92.5517833,13.7142857 C92.4965894,13.6666505 92.4411616,13.6160989 92.389008,13.5619018 C91.5973494,12.7764074 91.2,11.8049901 91.2,10.6437612 C91.2,9.48277534 91.5973494,8.50430996 92.389008,7.70860811 C92.4444358,7.65125147 92.5031378,7.59705431 92.5585656,7.54285714 C92.5616059,7.54625966 92.5616059,7.54285714 92.5616059,7.54285714 C92.6203079,7.59705431 92.6790099,7.65125147 92.7344377,7.70860811 C93.5389593,8.50430996 93.9428571,9.48277534 93.9428571,10.6437612" id="Fill-63" fill="#407979"></path>
                <path d="M86.4,35.8615727 L86.4,17.6241416 C86.4,17.3582717 86.6238833,17.1428571 86.8996711,17.1428571 L92.7574717,17.1428571 C93.0334988,17.1428571 93.2571429,17.3582717 93.2571429,17.6241416 L93.2571429,35.8615727 C93.2571429,36.1274426 93.0334988,36.3428571 92.7574717,36.3428571 L86.8996711,36.3428571 C86.6238833,36.3428571 86.4,36.1274426 86.4,35.8615727" id="Fill-65" fill="#FFFFFF"></path>
                <path d="M128.914286,25.0660569 L128.914286,36.5420081 C128.914286,36.8106898 128.696587,37.0285714 128.428418,37.0285714 L122.73267,37.0285714 C122.464268,37.0285714 122.246802,36.8106898 122.246802,36.5420081 L122.246802,26.0370863 C122.246802,25.1310718 122.000728,24.4252287 121.510209,23.9202561 C121.018992,23.4155165 120.347289,23.1629137 119.494171,23.1629137 C118.69292,23.1629137 118.046336,23.4155165 117.556049,23.9202561 C117.064832,24.4252287 116.819689,25.1310718 116.819689,26.0370863 L116.819689,36.5420081 C116.819689,36.8106898 116.60199,37.0285714 116.333821,37.0285714 L110.637608,37.0285714 C110.369438,37.0285714 110.15174,36.8106898 110.15174,36.5420081 L110.15174,26.0370863 C110.15174,25.1310718 109.905899,24.4252287 109.415147,23.9202561 C108.924162,23.4155165 108.252227,23.1629137 107.399574,23.1629137 C106.598323,23.1629137 105.951739,23.4155165 105.46122,23.9202561 C104.96977,24.4252287 104.724626,25.1310718 104.724626,26.0370863 L104.724626,36.5420081 C104.724626,36.8106898 104.50716,37.0285714 104.238759,37.0285714 L98.5427781,37.0285714 C98.2746088,37.0285714 98.0571429,36.8106898 98.0571429,36.5420081 L98.0571429,18.0957104 C98.0571429,17.8267956 98.2746088,17.608914 98.5427781,17.608914 L103.657299,17.608914 C103.925701,17.608914 104.143167,17.8267956 104.143167,18.0957104 C104.143167,18.4946551 104.591588,18.7178963 104.916043,18.4867321 C106.174322,17.5907378 107.686583,17.1428571 109.454221,17.1428571 C111.673304,17.1428571 113.440477,17.8493993 114.756437,19.2620177 C114.934828,19.453334 115.233234,19.4687139 115.427906,19.2941756 C117.026456,17.8603517 119.028073,17.1428571 121.432758,17.1428571 C123.732548,17.1428571 125.554611,17.8612838 126.898713,19.2983701 C128.241886,20.7354565 128.914286,22.6581741 128.914286,25.0660569" id="Fill-67" fill="#FFFFFF"></path>
                <path d="M133.028571,35.8615727 L133.028571,17.6241416 C133.028571,17.3582717 133.252455,17.1428571 133.528482,17.1428571 L139.386043,17.1428571 C139.661831,17.1428571 139.885714,17.3582717 139.885714,17.6241416 L139.885714,35.8615727 C139.885714,36.1274426 139.661831,36.3428571 139.386043,36.3428571 L133.528482,36.3428571 C133.252455,36.3428571 133.028571,36.1274426 133.028571,35.8615727" id="Fill-69" fill="#FFFFFF"></path>
                <path d="M143.316178,26.7428569 C143.263899,23.9168731 144.29477,21.4832299 146.409022,19.4421631 C148.522341,17.4010962 151.031251,16.4068209 153.935751,16.4591016 C155.906237,16.4591016 157.650805,16.923976 159.16782,17.8525472 C160.565341,18.7085848 161.660393,19.8695932 162.452741,21.3362788 C162.569202,21.5519956 162.517156,21.8206995 162.323912,21.9697702 L158.431951,24.9730845 C158.212567,25.1421726 157.898662,25.0920113 157.738792,24.8649906 C156.703254,23.39595 155.461402,22.6609587 154.013469,22.6609587 C152.846534,22.6609587 151.91322,23.0403471 151.212826,23.7991237 C150.512898,24.5583714 150.162584,25.5396943 150.162584,26.7428569 C150.162584,27.9467261 150.512898,28.928049 151.212826,29.6868256 C151.91322,30.4460733 152.846534,30.8249906 154.013469,30.8249906 C155.44063,30.8249906 156.682016,30.0987128 157.738325,28.6463926 C157.899129,28.4252593 158.2079,28.3776886 158.424716,28.5432442 L162.320878,31.5166502 C162.515756,31.6652498 162.568735,31.9351313 162.451808,32.1515546 C161.659459,33.6172982 160.564641,34.7783066 159.16782,35.6334022 C157.650805,36.5619734 155.906237,37.0266122 153.935751,37.0266122 C151.031251,37.0788929 148.522341,36.0848531 146.409022,34.0435508 C144.29477,32.0024839 143.263899,29.5688408 143.316178,26.7428569" id="Fill-71" fill="#FFFFFF"></path>
                <path d="M140.571429,10.30432 C140.571429,11.4391444 140.167147,12.4080986 139.362329,13.2041295 C139.303839,13.2617706 139.24184,13.3191685 139.180074,13.3770528 C138.765967,13.7428428 138.306472,14.0103753 137.80463,14.1798937 C137.38093,14.3255773 136.92471,14.4 136.439245,14.4 C135.292144,14.4 134.324256,14.0072136 133.532305,13.2245593 C132.740353,12.4385 132.342857,11.466384 132.342857,10.30432 C132.342857,9.14249908 132.740353,8.16332997 133.532305,7.36705583 C134.324256,6.56761995 135.292144,6.17142857 136.439245,6.17142857 C136.928219,6.17142857 137.387715,6.2424463 137.81118,6.38812993 C138.313256,6.56081003 138.772752,6.83199074 139.186391,7.20118566 C139.189667,7.20459062 139.189667,7.20118566 139.189667,7.20118566 C139.248391,7.2554218 139.307114,7.30965794 139.362329,7.36705583 C140.167147,8.16332997 140.571429,9.14249908 140.571429,10.30432" id="Fill-73" fill="#A8D4D5"></path>
                <path d="M140.571429,10.6482308 C140.571429,11.7468035 140.167297,12.6848046 139.362775,13.4554065 C138.900175,13.898273 138.382382,14.213059 137.805652,14.4 C137.238979,14.2163552 136.727266,13.9079261 136.274722,13.4751836 C135.483064,12.7142349 135.085714,11.773173 135.085714,10.6482308 C135.085714,9.52352414 135.483064,8.57563442 136.274722,7.80479713 C136.730774,7.36216607 137.242253,7.04738004 137.8122,6.85714286 C138.385422,7.04738004 138.90345,7.36216607 139.362775,7.80479713 C140.167297,8.57563442 140.571429,9.52352414 140.571429,10.6482308" id="Fill-75" fill="#77A9AA"></path>
                <path d="M140.571429,10.6437612 C140.571429,11.77777 140.167331,12.7460279 139.362878,13.5414867 C139.304415,13.5990864 139.242444,13.656443 139.180707,13.7142857 C139.12505,13.6666505 139.069861,13.6160989 139.017478,13.5619018 C138.226121,12.7764074 137.828571,11.8049901 137.828571,10.6437612 C137.828571,9.48277534 138.226121,8.50430996 139.017478,7.70860811 C139.073135,7.65125147 139.131832,7.59705431 139.187021,7.54285714 C139.190295,7.54625966 139.190295,7.54285714 139.190295,7.54285714 C139.248992,7.59705431 139.307689,7.65125147 139.362878,7.70860811 C140.167331,8.50430996 140.571429,9.48277534 140.571429,10.6437612" id="Fill-77" fill="#407979"></path>
            </g>
        </g>
    </g>
</svg>