<?xml version="1.0" encoding="UTF-8"?>
<svg width="24px" height="21px" viewBox="0 0 24 21" version="1.1" xmlns="http://www.w3.org/2000/svg" xmlns:xlink="http://www.w3.org/1999/xlink">
    <!-- Generator: sketchtool 61.2 (101010) - https://sketch.com -->
    <title>6D19CC85-D26B-4F54-8CB4-9F658AD47172</title>
    <desc>Created with sketchtool.</desc>
    <g id="-" stroke="none" stroke-width="1" fill="none" fill-rule="evenodd">
        <g id="01---STYLESHEET" transform="translate(-214.000000, -2646.000000)" fill="#FFFFFF">
            <g id="icons/ic_print" transform="translate(210.000000, 2640.000000)">
                <path d="M24.25,10.5 L24.25,26.3145 C24.25,26.373 24.2155,26.4255 24.163,26.4495 C24.14425,26.45775 24.124,26.46225 24.1045,26.46225 C24.0685,26.46225 24.0325,26.44875 24.00475,26.424 L24.00475,26.424 L22.519,25.08675 C22.417,24.9945 22.288,24.948 22.15825,24.948 C22.02325,24.948 21.88825,24.99825 21.784,25.09875 L21.784,25.09875 L20.72125,26.12775 C20.55175,26.292 20.332,26.373 20.113,26.373 C19.894,26.373 19.67425,26.292 19.50475,26.12775 L19.50475,26.12775 L18.4555,25.11225 C18.3505,25.011 18.2155,24.96075 18.0805,24.96075 C17.9455,24.96075 17.8105,25.011 17.7055,25.11225 L17.7055,25.11225 L16.65625,26.12775 C16.48675,26.292 16.267,26.373 16.048,26.373 C15.829,26.373 15.60925,26.292 15.43975,26.12775 L15.43975,26.12775 L14.3905,25.11225 C14.2855,25.011 14.1505,24.96075 14.0155,24.96075 C13.8805,24.96075 13.7455,25.011 13.6405,25.11225 L13.6405,25.11225 L12.59125,26.12775 C12.42175,26.292 12.202,26.373 11.983,26.373 C11.764,26.373 11.54425,26.292 11.37475,26.12775 L11.37475,26.12775 L10.3255,25.11225 C10.2205,25.011 10.0855,24.96075 9.9505,24.96075 C9.8155,24.96075 9.6805,25.011 9.5755,25.11225 L9.5755,25.11225 L8.56,26.094 C8.46925,26.18175 8.34925,26.229 8.22775,26.229 C8.16475,26.229 8.10175,26.21625 8.04175,26.19075 C7.86475,26.11575 7.75,25.9425 7.75,25.7505 L7.75,25.7505 L7.75,10.5 L24.25,10.5 Z M22.75,12 L9.24925,12 L9.24925,23.5845 C9.47125,23.50425 9.7075,23.4615 9.94975,23.4615 C10.48075,23.4615 10.984,23.66475 11.3665,24.03375 L11.3665,24.03375 L11.98225,24.63 L12.5965,24.03525 C12.9805,23.66475 13.48375,23.4615 14.01475,23.4615 C14.54575,23.4615 15.049,23.66475 15.4315,24.03375 L15.4315,24.03375 L16.04725,24.63 L16.6615,24.03525 C17.0455,23.66475 17.54875,23.4615 18.07975,23.4615 C18.61075,23.4615 19.114,23.66475 19.4965,24.03375 L19.4965,24.03375 L20.11225,24.63 L20.73925,24.0225 C21.124,23.652 21.62725,23.44875 22.1575,23.44875 C22.36,23.44875 22.5595,23.47875 22.75,23.53575 L22.75,23.53575 L22.75,12 Z M15.25,19.5 C15.664,19.5 16,19.83525 16,20.25 C16,20.66475 15.664,21 15.25,21 L15.25,21 L11.5,21 C11.086,21 10.75,20.66475 10.75,20.25 C10.75,19.83525 11.086,19.5 11.5,19.5 L11.5,19.5 Z M20.5,16.5 C20.91475,16.5 21.25,16.836 21.25,17.25 C21.25,17.66475 20.91475,18 20.5,18 L20.5,18 L11.5,18 C11.086,18 10.75,17.66475 10.75,17.25 C10.75,16.836 11.086,16.5 11.5,16.5 L11.5,16.5 Z M18.25,13.5 C18.66475,13.5 19,13.836 19,14.25 C19,14.664 18.66475,15 18.25,15 L18.25,15 L11.5,15 C11.086,15 10.75,14.664 10.75,14.25 C10.75,13.836 11.086,13.5 11.5,13.5 L11.5,13.5 Z M26.5,6 C27.328,6 28,6.672 28,7.5 L28,7.5 L28,9.75 C28,10.578 27.328,11.25 26.5,11.25 L26.5,11.25 L25.75,11.25 L25.75,9 L6.25,9 L6.25,11.25 L5.5,11.25 C4.672,11.25 4,10.578 4,9.75 L4,9.75 L4,7.5 C4,6.672 4.672,6 5.5,6 L5.5,6 Z" id="Combined-Shape"></path>
            </g>
        </g>
    </g>
</svg>