<?xml version="1.0" encoding="UTF-8"?>
<svg width="20px" height="20px" viewBox="0 0 20 20" version="1.1" xmlns="http://www.w3.org/2000/svg" xmlns:xlink="http://www.w3.org/1999/xlink">
    <!-- Generator: sketchtool 61.2 (101010) - https://sketch.com -->
    <title>FA7BDA86-7F59-4511-9685-AE0996515397</title>
    <desc>Created with sketchtool.</desc>
    <g id="-" stroke="none" stroke-width="1" fill="none" fill-rule="evenodd">
        <g id="01---STYLESHEET" transform="translate(-410.000000, -2646.000000)" fill="#FFFFFF">
            <g id="icons/ic_search" transform="translate(404.000000, 2640.000000)">
                <path d="M21.2068235,19.2866076 C23.7574742,15.7377017 23.1564383,10.8255861 19.825341,7.99609809 C16.4942437,5.16661006 11.5486864,5.3673596 8.45796581,8.45752139 C5.36724519,11.5476832 5.16645935,16.4923462 7.99645906,19.8228413 C10.8264588,23.1533363 15.7394627,23.7542635 19.2890103,21.2040739 L24.0812827,26 L26,24.0816296 L21.2068235,19.2866076 Z M14.4198808,20.0686012 C11.2987735,20.0686012 8.7686162,17.5389013 8.7686162,14.4183584 C8.7686162,11.2978155 11.2987735,8.76811562 14.4198808,8.76811562 C17.540988,8.76811562 20.0711453,11.2978155 20.0711453,14.4183584 C20.0676572,17.5374556 17.539542,20.0651136 14.4198808,20.0686012 Z" id="Shape"></path>
            </g>
        </g>
    </g>
</svg>