<?xml version="1.0" encoding="UTF-8"?>
<svg width="20px" height="20px" viewBox="0 0 20 20" version="1.1" xmlns="http://www.w3.org/2000/svg" xmlns:xlink="http://www.w3.org/1999/xlink">
    <!-- Generator: sketchtool 61.2 (101010) - https://sketch.com -->
    <title>E9982F4E-5287-4FB2-A400-B43B629E8A1B</title>
    <desc>Created with sketchtool.</desc>
    <g id="-" stroke="none" stroke-width="1" fill="none" fill-rule="evenodd">
        <g id="01---STYLESHEET" transform="translate(-360.000000, -2646.000000)" fill="#FFFFFF">
            <g id="icons/ic_sad-copy" transform="translate(354.000000, 2640.000000)">
                <path d="M16,6 C21.5228475,6 26,10.4771525 26,16 C26,18.6521649 24.9464316,21.195704 23.0710678,23.0710678 C21.195704,24.9464316 18.6521649,26 16,26 C10.4771525,26 6,21.5228475 6,16 C6,10.4771525 10.4771525,6 16,6 Z M16,7.66666667 C11.3976271,7.66666667 7.66666667,11.3976271 7.66666667,16 C7.66666667,20.6023729 11.3976271,24.3333333 16,24.3333333 C20.6023729,24.3333333 24.3333333,20.6023729 24.3333333,16 C24.3333333,13.7898626 23.4553597,11.6702466 21.8925565,10.1074435 C20.3297534,8.54464034 18.2101374,7.66666667 16,7.66666667 Z M16,17.7009533 C17.5555678,17.6786648 19.0555924,18.2786746 20.1666667,19.36762 C20.491134,19.7035932 20.4818066,20.238986 20.1458333,20.5634533 C19.8098601,20.8879206 19.2744673,20.8785932 18.95,20.54262 C18.1682978,19.7589392 17.1068938,19.3185051 16,19.3185051 C14.8931062,19.3185051 13.8317022,19.7589392 13.05,20.54262 C12.8463418,20.7804335 12.526568,20.8840216 12.2221509,20.8107951 C11.9177337,20.7375686 11.6800514,20.4998863 11.6068249,20.1954691 C11.5335984,19.891052 11.6371865,19.5712782 11.875,19.36762 C12.9758339,18.2889462 14.4588163,17.6897614 16,17.7009533 Z M12.6666667,12.6666667 C13.126904,12.6666667 13.5,13.0397627 13.5,13.5 L13.5,15.1666667 C13.5,15.626904 13.126904,16 12.6666667,16 C12.2064294,16 11.8333333,15.626904 11.8333333,15.1666667 L11.8333333,13.5 C11.8333333,13.0397627 12.2064294,12.6666667 12.6666667,12.6666667 Z M19.3333333,12.6666667 C19.7935706,12.6666667 20.1666667,13.0397627 20.1666667,13.5 L20.1666667,15.1666667 C20.1666667,15.626904 19.7935706,16 19.3333333,16 C18.873096,16 18.5,15.626904 18.5,15.1666667 L18.5,13.5 C18.5,13.0397627 18.873096,12.6666667 19.3333333,12.6666667 Z" id="Combined-Shape"></path>
            </g>
        </g>
    </g>
</svg>